<svg width="21" height="20" viewBox="0 0 21 20" fill="none" xmlns="http://www.w3.org/2000/svg">
<path d="M10.7999 11.1667L13.2166 13.5834C13.3693 13.7362 13.5638 13.8126 13.7999 13.8126C14.036 13.8126 14.2304 13.7362 14.3832 13.5834C14.536 13.4306 14.6124 13.2362 14.6124 13.0001C14.6124 12.764 14.536 12.5695 14.3832 12.4167L11.9666 10.0001L14.3832 7.58342C14.536 7.43064 14.6124 7.23619 14.6124 7.00008C14.6124 6.76397 14.536 6.56953 14.3832 6.41675C14.2304 6.26397 14.036 6.18758 13.7999 6.18758C13.5638 6.18758 13.3693 6.26397 13.2166 6.41675L10.7999 8.83342L8.38322 6.41675C8.23044 6.26397 8.036 6.18758 7.79989 6.18758C7.56378 6.18758 7.36933 6.26397 7.21655 6.41675C7.06378 6.56953 6.98739 6.76397 6.98739 7.00008C6.98739 7.23619 7.06378 7.43064 7.21655 7.58342L9.63322 10.0001L7.21655 12.4167C7.06378 12.5695 6.98739 12.764 6.98739 13.0001C6.98739 13.2362 7.06378 13.4306 7.21655 13.5834C7.36933 13.7362 7.56378 13.8126 7.79989 13.8126C8.036 13.8126 8.23044 13.7362 8.38322 13.5834L10.7999 11.1667ZM10.7999 18.3334C9.64711 18.3334 8.56378 18.1145 7.54989 17.6767C6.536 17.239 5.65405 16.6454 4.90405 15.8959C4.15405 15.1465 3.56044 14.2645 3.12322 13.2501C2.686 12.2356 2.46711 11.1523 2.46655 10.0001C2.466 8.84786 2.68489 7.76453 3.12322 6.75008C3.56155 5.73564 4.15516 4.85369 4.90405 4.10425C5.65294 3.3548 6.53489 2.76119 7.54989 2.32341C8.56489 1.88564 9.64822 1.66675 10.7999 1.66675C11.9516 1.66675 13.0349 1.88564 14.0499 2.32341C15.0649 2.76119 15.9468 3.3548 16.6957 4.10425C17.4446 4.85369 18.0385 5.73564 18.4774 6.75008C18.9163 7.76453 19.1349 8.84786 19.1332 10.0001C19.1316 11.1523 18.9127 12.2356 18.4766 13.2501C18.0404 14.2645 17.4468 15.1465 16.6957 15.8959C15.9446 16.6454 15.0627 17.2392 14.0499 17.6776C13.0371 18.1159 11.9538 18.3345 10.7999 18.3334Z" fill="#007086"/>
</svg>
