<svg width="20" height="20" viewBox="0 0 20 20" fill="none" xmlns="http://www.w3.org/2000/svg">
<path d="M1.45834 11.1041C1.22223 11.1041 1.02445 11.0244 0.865003 10.8649C0.705558 10.7055 0.625558 10.5074 0.625003 10.2708C0.624447 10.0341 0.704447 9.83631 0.865003 9.67742C1.02556 9.51853 1.22334 9.43853 1.45834 9.43742H4.375C4.61111 9.43742 4.80917 9.51742 4.96917 9.67742C5.12917 9.83742 5.20889 10.0352 5.20834 10.2708C5.20778 10.5063 5.12778 10.7044 4.96834 10.8649C4.80889 11.0255 4.61111 11.1052 4.375 11.1041H1.45834ZM5.83334 16.6666C5.13889 16.6666 4.54861 16.4235 4.0625 15.9374C3.57639 15.4513 3.33334 14.861 3.33334 14.1666H2.29167C2.01389 14.1666 1.79167 14.0624 1.625 13.8541C1.45834 13.6458 1.40973 13.4096 1.47917 13.1458L1.66667 12.3541H4.27084C4.85417 12.3541 5.34723 12.1527 5.75 11.7499C6.15278 11.3471 6.35417 10.8541 6.35417 10.2708C6.35417 10.0902 6.33334 9.92353 6.29167 9.77075C6.25 9.61797 6.19445 9.4652 6.125 9.31242H6.91667C7.5 9.31242 7.99306 9.11103 8.39584 8.70825C8.79861 8.30547 9 7.81242 9 7.22909C9 6.64575 8.79861 6.1527 8.39584 5.74992C7.99306 5.34714 7.5 5.14575 6.91667 5.14575H3.75L3.875 4.64575C3.95834 4.25686 4.14945 3.94103 4.44834 3.69825C4.74722 3.45547 5.09778 3.33381 5.5 3.33325H13.9583C14.2361 3.33325 14.4583 3.43742 14.625 3.64575C14.7917 3.85409 14.8403 4.0902 14.7708 4.35409L14.2292 6.66659H15.8333C16.0972 6.66659 16.3472 6.72575 16.5833 6.84409C16.8194 6.96242 17.0139 7.12547 17.1667 7.33325L18.7292 9.39575C18.8819 9.5902 18.9792 9.80214 19.0208 10.0316C19.0625 10.261 19.0625 10.4935 19.0208 10.7291L18.4583 13.4999C18.4167 13.6944 18.3194 13.8541 18.1667 13.9791C18.0139 14.1041 17.8403 14.1666 17.6458 14.1666H16.6667C16.6667 14.861 16.4236 15.4513 15.9375 15.9374C15.4514 16.4235 14.8611 16.6666 14.1667 16.6666C13.4722 16.6666 12.8819 16.4235 12.3958 15.9374C11.9097 15.4513 11.6667 14.861 11.6667 14.1666H8.33334C8.33334 14.861 8.09028 15.4513 7.60417 15.9374C7.11806 16.4235 6.52778 16.6666 5.83334 16.6666ZM3.125 8.06242C2.88889 8.06242 2.69111 7.98242 2.53167 7.82242C2.37223 7.66242 2.29223 7.46464 2.29167 7.22909C2.29111 6.99353 2.37111 6.79575 2.53167 6.63575C2.69223 6.47575 2.89 6.39575 3.125 6.39575H6.875C7.11111 6.39575 7.30917 6.47575 7.46917 6.63575C7.62917 6.79575 7.70889 6.99353 7.70834 7.22909C7.70778 7.46464 7.62778 7.6627 7.46834 7.82325C7.30889 7.98381 7.11111 8.06353 6.875 8.06242H3.125ZM5.83334 14.9999C6.06945 14.9999 6.2675 14.9199 6.4275 14.7599C6.5875 14.5999 6.66723 14.4021 6.66667 14.1666C6.66611 13.931 6.58611 13.7333 6.42667 13.5733C6.26723 13.4133 6.06945 13.3333 5.83334 13.3333C5.59723 13.3333 5.39945 13.4133 5.24 13.5733C5.08056 13.7333 5.00056 13.931 5 14.1666C4.99945 14.4021 5.07945 14.6002 5.24 14.7608C5.40056 14.9213 5.59834 15.001 5.83334 14.9999ZM14.1667 14.9999C14.4028 14.9999 14.6008 14.9199 14.7608 14.7599C14.9208 14.5999 15.0006 14.4021 15 14.1666C14.9994 13.931 14.9194 13.7333 14.76 13.5733C14.6006 13.4133 14.4028 13.3333 14.1667 13.3333C13.9306 13.3333 13.7328 13.4133 13.5733 13.5733C13.4139 13.7333 13.3339 13.931 13.3333 14.1666C13.3328 14.4021 13.4128 14.6002 13.5733 14.7608C13.7339 14.9213 13.9317 15.001 14.1667 14.9999ZM13.2708 10.8333H17.2917L17.375 10.3958L15.8333 8.33325H13.8542L13.2708 10.8333Z" fill="#007086"/>
</svg>
