<svg width="20" height="20" viewBox="0 0 20 20" fill="none" xmlns="http://www.w3.org/2000/svg">
<path d="M10 15.0003C11.3889 15.0003 12.5694 14.5142 13.5417 13.542C14.5139 12.5698 15 11.3892 15 10.0003C15 8.792 14.6144 7.7295 13.8433 6.81283C13.0722 5.89616 12.0967 5.31977 10.9167 5.08366C10.6667 5.05589 10.4514 5.12533 10.2708 5.292C10.0903 5.45866 10 5.667 10 5.917V10.0003L7.125 12.8753C6.94444 13.0559 6.86111 13.2712 6.875 13.5212C6.88889 13.7712 6.99305 13.9726 7.1875 14.1253C7.59028 14.4448 8.03472 14.6706 8.52083 14.8028C9.00694 14.9351 9.5 15.0009 10 15.0003ZM10 18.3337C8.84722 18.3337 7.76389 18.1151 6.75 17.6778C5.73611 17.2406 4.85417 16.6467 4.10417 15.8962C3.35417 15.1456 2.76055 14.2637 2.32333 13.2503C1.88611 12.237 1.66722 11.1537 1.66667 10.0003C1.66611 8.847 1.885 7.76366 2.32333 6.75033C2.76167 5.737 3.35528 4.85505 4.10417 4.1045C4.85305 3.35394 5.735 2.76033 6.75 2.32366C7.765 1.887 8.84833 1.66811 10 1.667C11.1517 1.66589 12.235 1.88477 13.25 2.32366C14.265 2.76255 15.1469 3.35616 15.8958 4.1045C16.6447 4.85283 17.2386 5.73477 17.6775 6.75033C18.1164 7.76589 18.335 8.84922 18.3333 10.0003C18.3317 11.1514 18.1128 12.2348 17.6767 13.2503C17.2406 14.2659 16.6469 15.1478 15.8958 15.8962C15.1447 16.6445 14.2628 17.2384 13.25 17.6778C12.2372 18.1173 11.1539 18.3359 10 18.3337Z" fill="#007086"/>
</svg>
