<svg width="14" height="15" viewBox="0 0 14 15" fill="none" xmlns="http://www.w3.org/2000/svg">
<path d="M7.75773 2.3363L12.7942 11.0595C12.871 11.1925 12.9115 11.3434 12.9115 11.497C12.9115 11.6506 12.871 11.8014 12.7942 11.9345C12.7174 12.0675 12.607 12.1779 12.474 12.2547C12.341 12.3315 12.1901 12.372 12.0365 12.372H1.96348C1.80989 12.372 1.659 12.3315 1.52599 12.2547C1.39297 12.1779 1.28252 12.0675 1.20572 11.9345C1.12893 11.8014 1.0885 11.6506 1.0885 11.497C1.0885 11.3434 1.12893 11.1925 1.20573 11.0595L6.24223 2.3363C6.57881 1.75297 7.42056 1.75297 7.75773 2.3363ZM6.99998 3.35714L2.46865 11.2053H11.5313L6.99998 3.35714ZM6.99998 9.24997C7.15469 9.24997 7.30306 9.31143 7.41246 9.42082C7.52185 9.53022 7.58331 9.67859 7.58331 9.8333C7.58331 9.98801 7.52185 10.1364 7.41246 10.2458C7.30306 10.3552 7.15469 10.4166 6.99998 10.4166C6.84527 10.4166 6.6969 10.3552 6.5875 10.2458C6.4781 10.1364 6.41665 9.98801 6.41665 9.8333C6.41665 9.67859 6.4781 9.53022 6.5875 9.42082C6.6969 9.31143 6.84527 9.24997 6.99998 9.24997ZM6.99998 5.16664C7.15469 5.16664 7.30306 5.2281 7.41246 5.33749C7.52185 5.44689 7.58331 5.59526 7.58331 5.74997V8.0833C7.58331 8.23801 7.52185 8.38639 7.41246 8.49578C7.30306 8.60518 7.15469 8.66664 6.99998 8.66664C6.84527 8.66664 6.6969 8.60518 6.5875 8.49578C6.4781 8.38639 6.41665 8.23801 6.41665 8.0833V5.74997C6.41665 5.59526 6.4781 5.44689 6.5875 5.33749C6.6969 5.2281 6.84527 5.16664 6.99998 5.16664Z" fill="#D00416"/>
</svg>
