<svg width="14" height="15" viewBox="0 0 14 15" fill="none" xmlns="http://www.w3.org/2000/svg">
<path d="M7.00037 10.3333C7.17698 10.3334 7.34614 10.4038 7.47107 10.5286C7.59609 10.6536 7.66638 10.8235 7.66638 11.0003C7.6663 11.177 7.59602 11.3461 7.47107 11.471C7.34612 11.596 7.17706 11.6662 7.00037 11.6663C6.82356 11.6663 6.65371 11.596 6.52869 11.471C6.40384 11.3461 6.33346 11.1769 6.33337 11.0003C6.33337 10.8235 6.40366 10.6537 6.52869 10.5286C6.65371 10.4036 6.82356 10.3333 7.00037 10.3333ZM7.00037 6.83331C7.17698 6.8334 7.34614 6.90378 7.47107 7.02863C7.59609 7.15365 7.66638 7.32349 7.66638 7.50031C7.6663 7.677 7.59602 7.84606 7.47107 7.97101C7.34612 8.09596 7.17706 8.16623 7.00037 8.16632C6.82356 8.16632 6.65371 8.09603 6.52869 7.97101C6.40384 7.84608 6.33346 7.67692 6.33337 7.50031C6.33337 7.32349 6.40366 7.15365 6.52869 7.02863C6.65371 6.9036 6.82356 6.83331 7.00037 6.83331ZM7.00037 3.33331C7.17698 3.3334 7.34614 3.40378 7.47107 3.52863C7.59609 3.65365 7.66638 3.82349 7.66638 4.00031C7.6663 4.177 7.59602 4.34606 7.47107 4.47101C7.34612 4.59596 7.17706 4.66623 7.00037 4.66632C6.82356 4.66632 6.65371 4.59603 6.52869 4.47101C6.40384 4.34608 6.33346 4.17692 6.33337 4.00031C6.33337 3.82349 6.40366 3.65365 6.52869 3.52863C6.65371 3.4036 6.82356 3.33331 7.00037 3.33331Z" stroke="#004D5C"/>
</svg>
