<svg width="21" height="20" viewBox="0 0 21 20" fill="none" xmlns="http://www.w3.org/2000/svg">
<path d="M8.56975 7.27492L8.99891 8.82742C9.40308 10.2899 9.60475 11.0216 10.1989 11.3541C10.7931 11.6874 11.5472 11.4908 13.0556 11.0991L14.6556 10.6824C16.1639 10.2908 16.9181 10.0949 17.2614 9.51908C17.6047 8.94242 17.4031 8.21075 16.9981 6.74825L16.5697 5.19658C16.1656 3.73325 15.9631 3.00158 15.3697 2.66908C14.7747 2.33575 14.0206 2.53242 12.5122 2.92492L10.9122 3.33992C9.40391 3.73158 8.64975 3.92825 8.30725 4.50492C7.96391 5.08075 8.16558 5.81242 8.56975 7.27492Z" fill="#007086"/>
<path d="M2.49727 4.37248C2.51922 4.29334 2.55656 4.21929 2.60715 4.15459C2.65774 4.08988 2.72059 4.03578 2.7921 3.99538C2.86362 3.95498 2.94239 3.92908 3.02392 3.91914C3.10545 3.9092 3.18814 3.91544 3.26727 3.93748L4.68643 4.33082C5.06244 4.43319 5.40556 4.63111 5.68242 4.90535C5.95929 5.17959 6.16048 5.5208 6.26643 5.89582L8.05893 12.3841L8.1906 12.84C8.72206 13.0359 9.16992 13.4087 9.45893 13.8958L9.71727 13.8158L17.1089 11.895C17.1884 11.8743 17.2711 11.8695 17.3524 11.8808C17.4338 11.8921 17.5121 11.9193 17.5829 11.9608C17.6537 12.0024 17.7156 12.0575 17.7651 12.1229C17.8146 12.1884 17.8507 12.263 17.8714 12.3425C17.8921 12.4219 17.8969 12.5047 17.8857 12.586C17.8744 12.6673 17.8472 12.7456 17.8056 12.8164C17.764 12.8872 17.709 12.9491 17.6435 12.9987C17.578 13.0482 17.5034 13.0843 17.4239 13.105L10.0598 15.0183L9.78477 15.1033C9.77977 16.1616 9.04893 17.13 7.9431 17.4166C6.6181 17.7616 5.2556 16.9983 4.9006 15.7133C4.5456 14.4283 5.33227 13.1058 6.65727 12.7616C6.72338 12.745 6.78921 12.7305 6.85477 12.7183L5.06143 6.22832C5.01294 6.06169 4.92226 5.9104 4.79817 5.78909C4.67408 5.66777 4.52078 5.58053 4.3531 5.53582L2.9331 5.14165C2.85397 5.11978 2.77992 5.08253 2.71519 5.03203C2.65046 4.98154 2.59631 4.91878 2.55584 4.84735C2.51536 4.77593 2.48936 4.69723 2.47931 4.61575C2.46926 4.53427 2.47536 4.4516 2.49727 4.37248Z" fill="#007086"/>
</svg>
