<svg width="21" height="20" viewBox="0 0 21 20" fill="none" xmlns="http://www.w3.org/2000/svg">
<path d="M14.5667 2.78332C15.8235 3.50904 16.8691 4.55043 17.5998 5.80441C18.3306 7.05839 18.7211 8.48147 18.7328 9.93277C18.7446 11.3841 18.377 12.8133 17.6667 14.0789C16.9563 15.3445 15.9277 16.4027 14.6827 17.1486C13.4377 17.8945 12.0195 18.3023 10.5684 18.3317C9.11734 18.3611 7.68378 18.011 6.40961 17.316C5.13545 16.6211 4.06488 15.6054 3.30387 14.3696C2.54287 13.1337 2.11782 11.7206 2.07082 10.27L2.06665 9.99999L2.07082 9.72999C2.11749 8.29082 2.53627 6.88829 3.28635 5.65915C4.03643 4.43001 5.0922 3.4162 6.35073 2.71656C7.60926 2.01692 9.02761 1.65532 10.4675 1.66702C11.9074 1.67872 13.3197 2.06332 14.5667 2.78332ZM10.4 4.99999C10.1959 5.00002 9.99887 5.07496 9.84634 5.21059C9.69381 5.34622 9.59636 5.53312 9.57248 5.73583L9.56665 5.83333V9.99999L9.57415 10.1092C9.59315 10.2537 9.64976 10.3908 9.73832 10.5067L9.81082 10.59L12.3108 13.09L12.3892 13.1583C12.5353 13.2717 12.715 13.3333 12.9 13.3333C13.085 13.3333 13.2647 13.2717 13.4108 13.1583L13.4892 13.0892L13.5583 13.0108C13.6717 12.8647 13.7332 12.685 13.7332 12.5C13.7332 12.315 13.6717 12.1353 13.5583 11.9892L13.4892 11.9108L11.2333 9.65416V5.83333L11.2275 5.73583C11.2036 5.53312 11.1062 5.34622 10.9536 5.21059C10.8011 5.07496 10.6041 5.00002 10.4 4.99999Z" fill="#007086"/>
</svg>
