<svg width="32" height="32" viewBox="0 0 32 32" fill="none" xmlns="http://www.w3.org/2000/svg">
<path d="M14.1246 13.3968C14.1246 13.7455 14.218 14.0504 14.4284 14.3125H12.8117C12.7353 14.034 12.6978 13.7463 12.7004 13.4575C12.7004 11.6271 14.3159 10.3435 16.6154 10.3435C18.8305 10.3435 20.4291 11.6654 20.491 13.5498H19.1073C18.9835 12.3348 18.0227 11.5889 16.576 11.5889C15.1923 11.5889 14.1235 12.2661 14.1235 13.3968H14.1246ZM16.5929 21.8095C14.1708 21.8095 12.5553 20.5641 12.4247 18.6483H13.8085C13.9705 19.8408 15.0786 20.5641 16.6705 20.5641C18.178 20.5641 19.2692 19.771 19.2692 18.6798C19.2692 17.7494 18.6539 17.134 17.116 16.7954L16.0517 16.5625H8.125V15.4375H23.875V16.5625H19.933C20.4595 17.0541 20.6924 17.6808 20.6924 18.4716C20.6924 20.5259 19.0769 21.8095 16.5929 21.8095Z" fill="#646B72"/>
</svg>
