<svg width="32" height="32" viewBox="0 0 32 32" fill="none" xmlns="http://www.w3.org/2000/svg">
<path fill-rule="evenodd" clip-rule="evenodd" d="M10.75 10C10.75 9.58579 11.0858 9.25 11.5 9.25H17.5C18.4946 9.25 19.4484 9.64509 20.1516 10.3483C20.8549 11.0516 21.25 12.0054 21.25 13C21.25 13.9946 20.8549 14.9484 20.1516 15.6517C19.4484 16.3549 18.4946 16.75 17.5 16.75H11.5C11.0858 16.75 10.75 16.4142 10.75 16V10ZM12.25 10.75V15.25H17.5C18.0967 15.25 18.669 15.0129 19.091 14.591C19.5129 14.169 19.75 13.5967 19.75 13C19.75 12.4033 19.5129 11.831 19.091 11.409C18.669 10.9871 18.0967 10.75 17.5 10.75H12.25Z" fill="#646B72"/>
<path fill-rule="evenodd" clip-rule="evenodd" d="M10.75 16C10.75 15.5858 11.0858 15.25 11.5 15.25H18.25C19.2446 15.25 20.1984 15.6451 20.9016 16.3483C21.6049 17.0516 22 18.0054 22 19C22 19.9946 21.6049 20.9484 20.9016 21.6516C20.1984 22.3549 19.2446 22.75 18.25 22.75H11.5C11.0858 22.75 10.75 22.4142 10.75 22V16ZM12.25 16.75V21.25H18.25C18.8467 21.25 19.419 21.0129 19.841 20.591C20.2629 20.169 20.5 19.5967 20.5 19C20.5 18.4033 20.2629 17.831 19.841 17.409C19.419 16.9871 18.8467 16.75 18.25 16.75H12.25Z" fill="#646B72"/>
</svg>
