<svg width="32" height="32" viewBox="0 0 32 32" fill="none" xmlns="http://www.w3.org/2000/svg">
<path fill-rule="evenodd" clip-rule="evenodd" d="M11.5 8.5C11.9142 8.5 12.25 8.83579 12.25 9.25V14.5C12.25 15.4946 12.6451 16.4484 13.3483 17.1517C14.0516 17.8549 15.0054 18.25 16 18.25C16.9946 18.25 17.9484 17.8549 18.6517 17.1517C19.3549 16.4484 19.75 15.4946 19.75 14.5V9.25C19.75 8.83579 20.0858 8.5 20.5 8.5C20.9142 8.5 21.25 8.83579 21.25 9.25V14.5C21.25 15.8924 20.6969 17.2277 19.7123 18.2123C18.7277 19.1969 17.3924 19.75 16 19.75C14.6076 19.75 13.2723 19.1969 12.2877 18.2123C11.3031 17.2277 10.75 15.8924 10.75 14.5V9.25C10.75 8.83579 11.0858 8.5 11.5 8.5Z" fill="#646B72"/>
<path fill-rule="evenodd" clip-rule="evenodd" d="M9.25 22.75C9.25 22.3358 9.58579 22 10 22H22C22.4142 22 22.75 22.3358 22.75 22.75C22.75 23.1642 22.4142 23.5 22 23.5H10C9.58579 23.5 9.25 23.1642 9.25 22.75Z" fill="#646B72"/>
</svg>
