<svg width="32" height="32" viewBox="0 0 32 32" fill="none" xmlns="http://www.w3.org/2000/svg">
<path fill-rule="evenodd" clip-rule="evenodd" d="M13.75 10C13.75 9.58579 14.0858 9.25 14.5 9.25H21.25C21.6642 9.25 22 9.58579 22 10C22 10.4142 21.6642 10.75 21.25 10.75H14.5C14.0858 10.75 13.75 10.4142 13.75 10Z" fill="#646B72"/>
<path fill-rule="evenodd" clip-rule="evenodd" d="M10 22C10 21.5858 10.3358 21.25 10.75 21.25H17.5C17.9142 21.25 18.25 21.5858 18.25 22C18.25 22.4142 17.9142 22.75 17.5 22.75H10.75C10.3358 22.75 10 22.4142 10 22Z" fill="#646B72"/>
<path fill-rule="evenodd" clip-rule="evenodd" d="M18.5133 9.29771C18.9012 9.44315 19.0977 9.87546 18.9522 10.2633L14.4522 22.2633C14.3068 22.6511 13.8745 22.8476 13.4866 22.7022C13.0988 22.5568 12.9023 22.1245 13.0477 21.7366L17.5477 9.73662C17.6932 9.34878 18.1255 9.15227 18.5133 9.29771Z" fill="#646B72"/>
</svg>
