<svg width="12" height="9" viewBox="0 0 12 9" fill="none" xmlns="http://www.w3.org/2000/svg">
<path d="M4.83333 4.5C4.83333 4.80942 4.95625 5.10617 5.17504 5.32496C5.39383 5.54375 5.69058 5.66667 6 5.66667C6.30942 5.66667 6.60617 5.54375 6.82496 5.32496C7.04375 5.10617 7.16667 4.80942 7.16667 4.5C7.16667 4.19058 7.04375 3.89383 6.82496 3.67504C6.60617 3.45625 6.30942 3.33333 6 3.33333C5.69058 3.33333 5.39383 3.45625 5.17504 3.67504C4.95625 3.89383 4.83333 4.19058 4.83333 4.5Z" stroke="#004D5C" stroke-linecap="round" stroke-linejoin="round"/>
<path d="M11.25 4.5C9.85 6.83333 8.1 8 6 8C3.9 8 2.15 6.83333 0.75 4.5C2.15 2.16667 3.9 1 6 1C8.1 1 9.85 2.16667 11.25 4.5Z" stroke="#004D5C" stroke-linecap="round" stroke-linejoin="round"/>
</svg>
